# xmcd
#
# Track frame offsets:
#	150
#	13245
#	25145
#	36797
#	49845
#	61452
#	74152
#	86932
#	101109
#	116189
#	128032
#	140668
#	155951
#	166896
#	178334
#	201884
#	222272
#	235415
#	247138
#	263213
#	273595
#	286940
#	298145
#	310290
#
# Disc length: 4298 seconds
#
# Revision: 0
# Processed by: cddbd v1.4PL0 Copyright (c) Steve Scherf et al.
# Submitted via: audiograbber 1.81.00
#
DISCID=9110c818
DTITLE=Conway Twitty - drs cda-276 cd
DYEAR=1900
DGENRE=Country
TTITLE0=A Bridge That Just Won't Burn
TTITLE1=After The Fire Is Gone (with Loretta Lynn)
TTITLE2=Darling You Know I Wouldn't Lie
TTITLE3=Feelin's (with Loretta Lynn)
TTITLE4=I Can't Help It
TTITLE5=I Can't Stop Loving You
TTITLE6=I May Never Get To Heaven
TTITLE7=I Still Believe In Waltzes (with Loretta Lynn)
TTITLE8=I'd Love To Lay You Down
TTITLE9=It's Only Make Believe (with Loretta Lynn)
TTITLE10=I've Already Loved You In My Mind
TTITLE11=Last Date
TTITLE12=Lead Me On (with Loretta Lynn)
TTITLE13=Louisiana Woman Mississippi Man (with Loretta Lynn)
TTITLE14=Rainy Night In Georgia
TTITLE15=Rest Your Love On Me
TTITLE16=Spiders and Snakes (with Loretta Lynn)
TTITLE17=Such A Night
TTITLE18=The Rose
TTITLE19=The Story Of My Love
TTITLE20=There's A Honky Tonk Angel Who'll Take Me Back In
TTITLE21=This Time I've Hurt Her More Than She Loves Me
TTITLE22=To See My Angel Cry
TTITLE23=You Love Had Taken Me That High
EXTD=
EXTT0=
EXTT1=
EXTT2=
EXTT3=
EXTT4=
EXTT5=
EXTT6=
EXTT7=
EXTT8=
EXTT9=
EXTT10=
EXTT11=
EXTT12=
EXTT13=
EXTT14=
EXTT15=
EXTT16=
EXTT17=
EXTT18=
EXTT19=
EXTT20=
EXTT21=
EXTT22=
EXTT23=
PLAYORDER=
